<?xml version="1.0" encoding="UTF-8"?>
<svg version="1.1" xmlns="http://www.w3.org/2000/svg" width="475" height="475">
<path d="M0 0 C0.9745816 -0.0033284 1.94916321 -0.0066568 2.95327759 -0.01008606 C5.01588471 -0.01513869 7.07849997 -0.0174949 9.14111328 -0.01733398 C12.24395905 -0.01949977 15.34643677 -0.03761576 18.44921875 -0.05664062 C33.91627437 -0.102287 48.55428522 0.92706231 63.6015625 4.79296875 C64.61484619 5.05094238 65.62812988 5.30891602 66.67211914 5.57470703 C77.07112608 8.32216502 87.01681244 11.97950273 96.9140625 16.16796875 C98.01258545 16.62743896 98.01258545 16.62743896 99.13330078 17.09619141 C115.96935323 24.24543047 132.31764239 33.88586925 145.9140625 46.16796875 C146.77 46.92851563 147.6259375 47.6890625 148.5078125 48.47265625 C150.20559729 49.9914577 151.89603596 51.51852101 153.578125 53.0546875 C155.6757724 54.95239192 157.81510032 56.78146805 159.9765625 58.60546875 C174.4675878 71.29600593 185.1016819 87.77984444 194.9140625 104.16796875 C195.29836426 104.80959961 195.68266602 105.45123047 196.07861328 106.11230469 C211.47717012 132.27635004 221.04076306 164.39451671 221.08203125 194.8046875 C221.08535965 195.68719681 221.08868805 196.56970612 221.09211731 197.47895813 C221.09714217 199.33354172 221.09952702 201.18813422 221.09936523 203.04272461 C221.10154368 205.83137469 221.11972538 208.61962312 221.13867188 211.40820312 C221.22612984 238.14773247 215.49543414 263.61937284 204.9140625 288.16796875 C204.34945312 289.4825708 204.34945312 289.4825708 203.7734375 290.82373047 C194.92783717 311.08384088 182.9642674 328.49242349 168.0703125 344.7890625 C166.11790814 346.94307384 164.23128891 349.13824601 162.3515625 351.35546875 C158.84730014 355.36376885 154.98939401 358.75426274 150.9140625 362.16796875 C149.65529297 363.27591797 149.65529297 363.27591797 148.37109375 364.40625 C108.0345874 399.29037343 54.56909662 416.48400937 1.51416016 412.94091797 C-14.06723095 411.75680743 -29.13807414 409.79736905 -44.0859375 405.16796875 C-45.14216309 404.84554199 -45.14216309 404.84554199 -46.21972656 404.51660156 C-70.96389285 396.79198782 -94.10424887 384.68044396 -114.0859375 368.16796875 C-114.64732422 367.7080957 -115.20871094 367.24822266 -115.78710938 366.77441406 C-157.46533422 332.46073619 -185.53263132 283.68976986 -191.07055664 229.59375 C-194.8847157 187.54326038 -188.1059823 146.52563404 -168.0859375 109.16796875 C-167.74336914 108.51231934 -167.40080078 107.85666992 -167.04785156 107.18115234 C-142.0171619 59.37090215 -97.07942304 24.72570158 -46.22363281 8.10400391 C-36.35378625 5.15963791 -26.19715416 3.10115046 -16.0859375 1.16796875 C-15.18601074 0.98314941 -14.28608398 0.79833008 -13.35888672 0.60791016 C-8.89724015 0.00818711 -4.49705658 0.00541 0 0 Z " fill="#FE3131" transform="translate(231.0859375,22.83203125)"/>
<path d="M0 0 C-0.375 1.9375 -0.375 1.9375 -1 4 C-1.66 4.33 -2.32 4.66 -3 5 C-3.73475965 6.6641992 -4.4630538 8.33175636 -5.14794922 10.01708984 C-6.53923191 13.25491163 -8.29880814 16.26612314 -10.0625 19.3125 C-10.41376953 19.93189453 -10.76503906 20.55128906 -11.12695312 21.18945312 C-12.58823873 23.73358175 -13.91592024 25.91592024 -16 28 C-17.03842565 30.31648799 -18.0421975 32.64903024 -19 35 C-19.66 35 -20.32 35 -21 35 C-21.495 35.99 -21.495 35.99 -22 37 C-22.70382812 36.55269531 -23.40765625 36.10539062 -24.1328125 35.64453125 C-38.86996366 26.62139301 -54.60256552 21.54846073 -72 23 C-74.67400124 23.73780258 -76.57899313 24.61656751 -79 26 C-79 27.98 -79 29.96 -79 32 C-78.05125 32.309375 -77.1025 32.61875 -76.125 32.9375 C-73 34 -73 34 -71 35 C-69.25594589 35.31256171 -67.50425202 35.5829943 -65.75 35.83203125 C-64.67532471 35.98833008 -63.60064941 36.14462891 -62.4934082 36.30566406 C-61.3405835 36.47291992 -60.18775879 36.64017578 -59 36.8125 C-16.39584447 43.28844832 -16.39584447 43.28844832 -4 58 C5.6616627 71.48138982 7.74221339 83.91756125 5.5703125 100.2265625 C2.27916492 114.32567619 -7.71254909 124.25016659 -19.625 131.75 C-33.71016441 139.5953636 -48.45092663 141.23568203 -64.3125 141.25 C-65.07944183 141.25100708 -65.84638367 141.25201416 -66.63656616 141.25305176 C-77.70281179 141.24319151 -88.25167214 140.88188768 -99 138 C-100.10988281 137.70996094 -101.21976562 137.41992188 -102.36328125 137.12109375 C-113.66755331 133.88549971 -125.34810337 129.82249903 -135 123 C-136.16540406 122.22725908 -137.33198368 121.45628672 -138.5 120.6875 C-139.325 120.130625 -140.15 119.57375 -141 119 C-138.13461395 111.35897052 -134.22097384 104.6359467 -129.8046875 97.8125 C-126.53849141 92.72232427 -123.35759234 87.55084455 -120.515625 82.2109375 C-120.01546875 81.48132813 -119.5153125 80.75171875 -119 80 C-118.01 80 -117.02 80 -116 80 C-115.505 80.99 -115.505 80.99 -115 82 C-111.59874673 84.26950882 -108.09191852 85.89848445 -104.3125 87.4375 C-103.26578125 87.86546875 -102.2190625 88.2934375 -101.140625 88.734375 C-100.10421875 89.15203125 -99.0678125 89.5696875 -98 90 C-96.60007812 90.56460938 -96.60007812 90.56460938 -95.171875 91.140625 C-92.78326742 92.09892864 -90.39215689 93.05059978 -88 94 C-86.78570312 94.51626953 -86.78570312 94.51626953 -85.546875 95.04296875 C-75.07994707 98.97609351 -60.83910343 99.61057404 -50 97 C-49.06619039 92.46859347 -49.06619039 92.46859347 -50 88 C-59.17366303 84.4881028 -69.33843442 83.4511803 -79 82.0625 C-97.27842259 79.38901394 -115.26956816 75.52076636 -127 60 C-127.804375 59.071875 -128.60875 58.14375 -129.4375 57.1875 C-131 55 -131 55 -131 52 C-131.66 52 -132.32 52 -133 52 C-136.48136004 37.04880195 -136.41643845 22.35018852 -128.75 8.6875 C-128.1725 7.800625 -127.595 6.91375 -127 6 C-126.34 6 -125.68 6 -125 6 C-124.73445313 5.40960938 -124.46890625 4.81921875 -124.1953125 4.2109375 C-122.16933007 0.4635321 -119.11009974 -2.13920685 -116 -5 C-115.47019531 -5.51949219 -114.94039063 -6.03898438 -114.39453125 -6.57421875 C-85.26298648 -31.97265938 -28.50193244 -19.59027701 0 0 Z " fill="#FEFDFD" transform="translate(389,173)"/>
<path d="M0 0 C2.25682658 0.74533572 4.39051052 1.05902606 6.7421875 1.38671875 C16.31260105 3.14179459 25.19370117 9.27916522 33.1171875 14.69921875 C32.59568266 19.40160135 30.41648846 22.64112152 27.8046875 26.44921875 C24.75240976 31.03540349 22.10262305 35.46888674 20.0234375 40.58984375 C18.36410546 44.45208212 16.21535116 48.06182847 14.1171875 51.69921875 C10.77744932 50.97381325 8.29491777 49.66187427 5.34375 47.94140625 C-9.05430802 39.90880546 -23.44380668 36.32334544 -39.8828125 37.69921875 C-43.22372058 38.62867841 -43.22372058 38.62867841 -45.8828125 39.69921875 C-45.49416596 43.15058716 -45.49416596 43.15058716 -43.8828125 46.69921875 C-36.65719767 50.3075382 -28.60015883 51.06195198 -20.6953125 52.26171875 C-18.0131033 52.67262798 -15.33263957 53.09214092 -12.65234375 53.515625 C-11.47260986 53.69552979 -10.29287598 53.87543457 -9.07739258 54.06079102 C-6.12158053 54.65150164 -3.65958455 55.56494443 -0.8828125 56.69921875 C0.2721875 56.76109375 1.4271875 56.82296875 2.6171875 56.88671875 C13.46342904 58.09413054 22.75817644 66.22996033 30.1171875 73.69921875 C30.64054688 74.21226562 31.16390625 74.7253125 31.703125 75.25390625 C40.64630981 84.8475045 40.66923403 98.30134974 40.26220703 110.56591797 C39.81369963 117.16365823 37.28587586 122.96540172 34.1171875 128.69921875 C33.4571875 128.69921875 32.7971875 128.69921875 32.1171875 128.69921875 C31.8696875 129.25609375 31.6221875 129.81296875 31.3671875 130.38671875 C25.50238613 141.23660129 12.95931158 148.15396795 1.5546875 151.85546875 C-6.20180365 154.11777867 -13.29856696 155.85027353 -21.39453125 155.90234375 C-22.11614441 155.90931274 -22.83775757 155.91628174 -23.58123779 155.92346191 C-25.91098859 155.94084578 -28.24049946 155.9471862 -30.5703125 155.94921875 C-31.36148468 155.95022583 -32.15265686 155.95123291 -32.96780396 155.95227051 C-49.05446879 155.93837009 -63.73958834 154.63401093 -78.8828125 148.69921875 C-80.40841797 148.10947266 -80.40841797 148.10947266 -81.96484375 147.5078125 C-88.21777411 144.99877504 -94.06695866 142.08962682 -99.8828125 138.69921875 C-100.5428125 138.36921875 -101.2028125 138.03921875 -101.8828125 137.69921875 C-101.8828125 137.03921875 -101.8828125 136.37921875 -101.8828125 135.69921875 C-103.5328125 135.03921875 -105.1828125 134.37921875 -106.8828125 133.69921875 C-106.23202911 130.25482863 -104.86060004 127.7831481 -103.0078125 124.82421875 C-100.76622744 121.18164302 -98.71284445 117.56261953 -96.8828125 113.69921875 C-96.2228125 113.69921875 -95.5628125 113.69921875 -94.8828125 113.69921875 C-94.63789062 112.85101563 -94.39296875 112.0028125 -94.140625 111.12890625 C-92.76526462 107.37869999 -90.89900131 104.16840764 -88.7578125 100.82421875 C-88.19900391 99.93476563 -88.19900391 99.93476563 -87.62890625 99.02734375 C-86.7191625 97.58108445 -85.80177452 96.13963829 -84.8828125 94.69921875 C-80.60413028 96.2802937 -76.68250815 98.3831073 -72.6953125 100.57421875 C-56.92620191 109.0406005 -39.04689756 115.04638224 -20.8828125 112.69921875 C-17.94763341 111.59665188 -17.94763341 111.59665188 -15.8828125 109.69921875 C-15.28256729 107.65636814 -15.28256729 107.65636814 -15.5703125 105.51171875 C-15.6734375 104.25359375 -15.7765625 102.99546875 -15.8828125 101.69921875 C-16.8315625 101.55484375 -17.7803125 101.41046875 -18.7578125 101.26171875 C-21.8828125 100.69921875 -21.8828125 100.69921875 -23.8828125 99.69921875 C-25.84620643 99.39653499 -27.81656706 99.13855329 -29.7890625 98.90234375 C-77.72165295 92.91396034 -77.72165295 92.91396034 -91.8828125 76.69921875 C-91.8828125 76.03921875 -91.8828125 75.37921875 -91.8828125 74.69921875 C-92.8728125 74.36921875 -93.8628125 74.03921875 -94.8828125 73.69921875 C-101.54546661 63.07690899 -102.53164158 49.18694116 -100.1953125 37.16015625 C-98.22383014 30.14496485 -95.3595612 24.42945709 -90.8828125 18.69921875 C-90.274375 17.88453125 -89.6659375 17.06984375 -89.0390625 16.23046875 C-79.23090713 4.71654723 -65.26389805 -0.31982794 -50.8828125 -3.30078125 C-50.01398438 -3.48769531 -49.14515625 -3.67460937 -48.25 -3.8671875 C-32.71550048 -5.86756969 -14.76644902 -5.54417958 0 0 Z " fill="#FEFDFD" transform="translate(199.8828125,158.30078125)"/>
<path d="M0 0 C102.3 0 204.6 0 310 0 C310 10.23 310 20.46 310 31 C207.7 31 105.4 31 0 31 C0 20.77 0 10.54 0 0 Z " fill="#FEFDFD" transform="translate(90,327)"/>
<path d="M0 0 C0.33 0 0.66 0 1 0 C1 10.23 1 20.46 1 31 C103.3 31 205.6 31 311 31 C311 20.77 311 10.54 311 0 C311.66 0 312.32 0 313 0 C313.02465392 4.53897705 313.04283789 9.07791543 313.05493164 13.61694336 C313.0599714 15.16219766 313.0668032 16.70744716 313.07543945 18.25268555 C313.08752076 20.46925029 313.09323173 22.68575218 313.09765625 24.90234375 C313.10281754 25.5971434 313.10797882 26.29194305 313.11329651 27.00779724 C313.11349277 28.6722933 313.06189129 30.33665499 313 32 C307.69861572 37.30138428 285.23749904 34.13238784 278.09234619 34.13552856 C276.11932758 34.13408322 274.14630895 34.13262966 272.17329073 34.13072467 C268.66956168 34.12844177 265.16583744 34.13196437 261.66210938 34.13470459 C254.8172862 34.13913002 247.97247406 34.1382004 241.12765047 34.13529195 C235.56266135 34.13302592 229.9976753 34.13273058 224.43268585 34.13381577 C223.6381659 34.133969 222.84364595 34.13412223 222.02504964 34.13428011 C220.41063243 34.13459986 218.79621522 34.13492407 217.18179801 34.1352527 C202.07727557 34.13809784 186.97275921 34.13483525 171.86823776 34.12945233 C158.92289765 34.12498171 145.97756651 34.12576423 133.03222656 34.13037109 C117.97247999 34.13572796 102.91273873 34.13782687 87.85299134 34.13475883 C86.24601126 34.1344403 84.63903117 34.13412593 83.03205109 34.13381577 C82.24152428 34.13366149 81.45099747 34.13350721 80.6365153 34.13334826 C75.07961313 34.13248671 69.52271434 34.13393813 63.96581268 34.13629532 C57.19218054 34.13910571 50.41855997 34.13832877 43.64492914 34.13301457 C40.19253224 34.13039483 36.74015461 34.12934318 33.28775787 34.13266373 C29.53912982 34.13540177 25.79055578 34.13196166 22.04193115 34.12698364 C20.96001613 34.12921436 19.87810112 34.13144509 18.76340079 34.13374341 C17.24165885 34.12983178 17.24165885 34.12983178 15.68917465 34.12584114 C14.82568523 34.12567879 13.96219581 34.12551644 13.07254004 34.12534916 C8.70254567 33.94706828 4.351924 33.4351924 0 33 C0 22.11 0 11.22 0 0 Z " fill="#E34A4A" transform="translate(89,327)"/>
<path d="M0 0 C7.02637363 0.46400581 12.60665826 2.63378049 19 5.5 C20.51750854 6.17168213 20.51750854 6.17168213 22.06567383 6.85693359 C42.30473622 15.96298704 60.23970482 27.8686108 76.62890625 42.8515625 C78.73763367 44.76227104 80.88780105 46.60300148 83.0625 48.4375 C104.21331335 66.96035658 119.91954381 93.75565215 130.5 119.5625 C131.0264209 120.83081665 131.0264209 120.83081665 131.56347656 122.12475586 C133.32859986 126.57808536 134.44279586 130.12133842 134 135 C132 134 132 134 131.32421875 132.13671875 C131.00904297 130.92435547 131.00904297 130.92435547 130.6875 129.6875 C127.78922448 119.52190677 123.19704439 110.18874673 118.35546875 100.8359375 C117 98 117 98 117 96 C116.34 96 115.68 96 115 96 C114.32845067 94.71086513 113.66291141 93.41859796 113 92.125 C112.62875 91.40570313 112.2575 90.68640625 111.875 89.9453125 C111 88 111 88 111 86 C110.34 86 109.68 86 109 86 C109 85.01 109 84.02 109 83 C108.34 83 107.68 83 107 83 C107 82.01 107 81.02 107 80 C106.34 80 105.68 80 105 80 C104.67 78.68 104.34 77.36 104 76 C103.34 76 102.68 76 102 76 C101.67 74.68 101.34 73.36 101 72 C100.34 72 99.68 72 99 72 C98.67 70.68 98.34 69.36 98 68 C97.34 68 96.68 68 96 68 C94.6559907 66.00715862 93.32458708 64.00580329 92 62 C90.35511706 60.31183067 88.68662458 58.64646685 87 57 C86.05592448 55.85957829 85.11880165 54.71337684 84.1875 53.5625 C81.35664498 50.17730001 78.17093236 47.74417661 74.5390625 45.26171875 C74.03117187 44.84535156 73.52328125 44.42898437 73 44 C73 43.34 73 42.68 73 42 C72.34 42 71.68 42 71 42 C69.31002677 40.35697047 67.64783606 38.68528688 66 37 C62.47901279 33.91913619 59.02752525 31.35757575 55 29 C53.96875 28.236875 52.9375 27.47375 51.875 26.6875 C42.12850003 19.69001284 30.84759637 15.01049586 20 10 C20 9.34 20 8.68 20 8 C18.68 8 17.36 8 16 8 C16 7.34 16 6.68 16 6 C14.02 6 12.04 6 10 6 C10 5.34 10 4.68 10 4 C8.9171875 4.061875 8.9171875 4.061875 7.8125 4.125 C4.79270631 3.99078695 2.73064271 3.24829381 0 2 C0 1.34 0 0.68 0 0 Z " fill="#F12F30" transform="translate(308,33)"/>
<path d="M0 0 C0.33 0 0.66 0 1 0 C1.02712066 1.43739513 1.04645067 2.87493863 1.0625 4.3125 C1.07410156 5.11300781 1.08570313 5.91351563 1.09765625 6.73828125 C1 9 1 9 0 12 C-0.20322056 14.4555818 -0.3646617 16.91474308 -0.5 19.375 C-0.89495551 26.52651589 -0.89495551 26.52651589 -1.5234375 29.359375 C-2.27348508 33.51537634 -2.14350777 37.6613978 -2.125 41.875 C-2.12886719 42.74769531 -2.13273437 43.62039062 -2.13671875 44.51953125 C-2.12929345 49.4573568 -1.71502849 54.1074035 -1 59 C-0.88672716 61.8142907 -0.90400758 64.62156045 -0.9375 67.4375 C-0.94201172 68.16904297 -0.94652344 68.90058594 -0.95117188 69.65429688 C-0.96281852 71.43623419 -0.98074809 73.21812863 -1 75 C-0.34 75 0.32 75 1 75 C1.48019629 77.85399683 1.95918577 80.70818766 2.4375 83.5625 C2.63956055 84.76229492 2.63956055 84.76229492 2.84570312 85.98632812 C3.62621829 90.65038214 4.35235992 95.31561302 5 100 C2.31054695 97.68985848 1.45991409 95.92132862 0.68359375 92.484375 C0.47758545 91.57469971 0.27157715 90.66502441 0.05932617 89.7277832 C-0.14587646 88.74511475 -0.3510791 87.76244629 -0.5625 86.75 C-0.77865967 85.72801514 -0.99481934 84.70603027 -1.2175293 83.65307617 C-3.39661503 72.82892987 -4.47685887 62.01965081 -5 51 C-5.03996094 50.16968262 -5.07992187 49.33936523 -5.12109375 48.48388672 C-5.55397424 37.73329981 -4.77251595 27.19124804 -3.625 16.5 C-3.49907471 15.3234082 -3.37314941 14.14681641 -3.2434082 12.93457031 C-3.11409912 11.83209961 -2.98479004 10.72962891 -2.8515625 9.59375 C-2.73635254 8.61083984 -2.62114258 7.62792969 -2.50244141 6.61523438 C-2.01477382 4.0768985 -1.27958061 2.23052215 0 0 Z " fill="#F12F2F" transform="translate(44,187)"/>
<path d="M0 0 C0.66 0 1.32 0 2 0 C2.79550797 2.95734641 3.58646868 5.91579257 4.375 8.875 C4.59671875 9.69742188 4.8184375 10.51984375 5.046875 11.3671875 C5.26601563 12.1921875 5.48515625 13.0171875 5.7109375 13.8671875 C5.90993652 14.61081543 6.10893555 15.35444336 6.31396484 16.12060547 C6.54035645 17.07080566 6.76674805 18.02100586 7 19 C7.17121368 19.70258942 7.34242737 20.40517883 7.51882935 21.12905884 C9.01262177 27.78106823 9.26267443 34.11379313 9.1953125 40.9140625 C9.1924826 42.00971527 9.18965271 43.10536804 9.18673706 44.23422241 C9.17563513 47.69793097 9.15054939 51.16137097 9.125 54.625 C9.11495729 56.98827749 9.10583371 59.35155907 9.09765625 61.71484375 C9.07572861 67.47665252 9.04235197 73.23830706 9 79 C8.67 79 8.34 79 8 79 C7.98018066 77.80511963 7.96036133 76.61023926 7.93994141 75.37915039 C7.86340318 70.91166446 7.77476311 66.44448392 7.68261719 61.97729492 C7.64452546 60.05027329 7.60963943 58.12318534 7.578125 56.19604492 C7.53204109 53.41300889 7.47412185 50.63042169 7.4140625 47.84765625 C7.40251129 46.99728287 7.39096008 46.14690948 7.37905884 45.27076721 C7.25857753 40.29760028 6.66105205 35.73121622 5.45651245 30.90139771 C4.89064181 28.54451755 4.6618595 26.22825311 4.5 23.8125 C4.16450326 19.93032339 3.30939339 16.6826689 2 13 C1.65596692 10.66822025 1.32050798 8.33512959 1 6 C0.67 5.67 0.34 5.34 0 5 C-0.04063832 3.33382885 -0.042721 1.66611905 0 0 Z " fill="#EF2C2D" transform="translate(442,169)"/>
<path d="M0 0 C-1.75 0.625 -1.75 0.625 -4 1 C-5.34373752 0.35456086 -6.67609553 -0.3147999 -8 -1 C-14.49692995 -3.15235716 -21.16620673 -3.18112702 -27.9375 -3.1875 C-28.77869385 -3.18830566 -29.6198877 -3.18911133 -30.48657227 -3.18994141 C-33.98285077 -3.158141 -36.65164247 -3.11611918 -40 -2 C-40.33 -0.35 -40.66 1.3 -41 3 C-36.545 3.99 -36.545 3.99 -32 5 C-32 5.66 -32 6.32 -32 7 C-28.37 7 -24.74 7 -21 7 C-21 7.66 -21 8.32 -21 9 C-19.081875 8.938125 -19.081875 8.938125 -17.125 8.875 C-14.9453125 8.8046875 -14.9453125 8.8046875 -13 9 C-12.34 9.66 -11.68 10.32 -11 11 C-35.99852032 9.13003194 -35.99852032 9.13003194 -42 4 C-43 0.75 -43 0.75 -43 -2 C-31.79519425 -11.20394758 -12.03228857 -5.12700204 0 0 Z " fill="#E94D4D" transform="translate(352,201)"/>
<path d="M0 0 C0.99 0.33 1.98 0.66 3 1 C3.0248905 6.79833674 3.04294954 12.59664172 3.05493164 18.39501953 C3.05993176 20.36377505 3.06673402 22.33252691 3.07543945 24.30126953 C3.08769573 27.14616809 3.09327167 29.99101717 3.09765625 32.8359375 C3.10281754 33.70302338 3.10797882 34.57010925 3.11329651 35.46347046 C3.11368473 39.78160608 2.99574938 44.07788549 2.68139648 48.38525391 C2.62426987 49.17525787 2.56714325 49.96526184 2.50828552 50.77920532 C2 53 2 53 -1 57 C-0.67 38.19 -0.34 19.38 0 0 Z " fill="#F43535" transform="translate(449,207)"/>
<path d="M0 0 C0.33 0 0.66 0 1 0 C0.54389525 7.30644717 -1.87466769 13.25193686 -4.75 19.9375 C-5.18054688 20.97068359 -5.61109375 22.00386719 -6.0546875 23.06835938 C-8.67993954 29.27385783 -11.58193073 35.19277007 -15 41 C-15.99 40.67 -16.98 40.34 -18 40 C-17.01 39.505 -17.01 39.505 -16 39 C-16 38.01 -16 37.02 -16 36 C-15.34 36 -14.68 36 -14 36 C-13.82984375 35.45472656 -13.6596875 34.90945313 -13.484375 34.34765625 C-12.18585873 30.3070604 -10.78816115 26.41392402 -9 22.5625 C-6.83313653 17.84540491 -5.37702082 12.99691646 -4 8 C-3.34 8 -2.68 8 -2 8 C-1.7834375 6.576875 -1.7834375 6.576875 -1.5625 5.125 C-1 2 -1 2 0 0 Z " fill="#F12F2F" transform="translate(442,288)"/>
<path d="M0 0 C1.0379337 3.27348319 0.94074149 4.2409846 0.0625 7.8125 C-2.21324072 17.16316256 -1.66760035 26.8301238 1 36 C1.125 39.5 1.125 39.5 1 42 C0.505 40.515 0.505 40.515 0 39 C-0.66 39 -1.32 39 -2 39 C-5.17522575 25.36353941 -4.96835707 13.15283814 0 0 Z " fill="#FAD0D0" transform="translate(258,186)"/>
<path d="M0 0 C0.66 0 1.32 0 2 0 C2 0.99 2 1.98 2 3 C1.34 3 0.68 3 0 3 C-0.10183594 3.90878906 -0.20367187 4.81757813 -0.30859375 5.75390625 C-1.09438529 11.25444701 -2.62855004 16.57765458 -4.0625 21.9375 C-4.34416016 23.00291016 -4.62582031 24.06832031 -4.91601562 25.16601562 C-5.60715798 27.77829945 -6.30190889 30.38956619 -7 33 C-7.66 33 -8.32 33 -9 33 C-9.3772206 26.83873026 -8.02628871 21.79293354 -6.1875 15.9375 C-5.79594727 14.62942383 -5.79594727 14.62942383 -5.39648438 13.29492188 C-3.96307672 8.61953543 -2.35680262 4.31018857 0 0 Z " fill="#F02F2F" transform="translate(54,152)"/>
<path d="M0 0 C0 0.66 0 1.32 0 2 C-3.66393638 3.7765223 -7.33162159 5.54517067 -11 7.3125 C-12.02996094 7.81201172 -13.05992187 8.31152344 -14.12109375 8.82617188 C-30.11296011 16.51652799 -30.11296011 16.51652799 -37 16 C-33.00044734 13.33363156 -28.72492956 11.96580751 -24.2265625 10.31640625 C-21.25155082 9.1026303 -18.73256205 7.67063956 -16 6 C-14.32783615 5.27599685 -12.6398389 4.58738827 -10.9375 3.9375 C-8.4963733 3.0009198 -6.14302103 2.0734294 -3.81640625 0.87890625 C-2 0 -2 0 0 0 Z " fill="#F02E2E" transform="translate(345,409)"/>
<path d="M0 0 C4.74791655 8.54624979 4.09469699 20.93651605 2.3984375 30.33203125 C0.65541237 36.34458763 0.65541237 36.34458763 -2 39 C-1.85892253 37.54119891 -1.71197585 36.08296449 -1.5625 34.625 C-1.48128906 33.81289063 -1.40007812 33.00078125 -1.31640625 32.1640625 C-1 30 -1 30 0 28 C0.09539873 26.51411977 0.13073484 25.02409435 0.1328125 23.53515625 C0.13410156 22.65279297 0.13539063 21.77042969 0.13671875 20.86132812 C0.13285156 19.93771484 0.12898437 19.01410156 0.125 18.0625 C0.12886719 17.14275391 0.13273438 16.22300781 0.13671875 15.27539062 C0.13542969 14.39173828 0.13414062 13.50808594 0.1328125 12.59765625 C0.13168457 11.78820557 0.13055664 10.97875488 0.12939453 10.14477539 C0.08150607 7.81364562 0.08150607 7.81364562 -1 5 C-0.5625 2.3125 -0.5625 2.3125 0 0 Z " fill="#FBD8D8" transform="translate(237,244)"/>
<path d="M0 0 C6.18692694 -0.2062309 11.77657748 0.3809142 17.859375 1.49609375 C22.06153192 2.17032042 26.25676023 2.43063799 30.50390625 2.65625 C33 3 33 3 36 5 C27.22565989 5.32276183 18.80304961 5.06430772 10.125 3.625 C9.34656738 3.49891357 8.56813477 3.37282715 7.76611328 3.24291992 C2.26190532 2.26190532 2.26190532 2.26190532 0 0 Z " fill="#FBD4D5" transform="translate(131,309)"/>
<path d="M0 0 C1.79206547 0.14084796 3.58364917 0.28783701 5.375 0.4375 C6.87160156 0.55931641 6.87160156 0.55931641 8.3984375 0.68359375 C11 1 11 1 13 2 C15.33077343 2.30791869 17.66241896 2.50895274 20.00390625 2.71875 C22 3 22 3 23 4 C25.01836012 4.16004618 27.0401542 4.2774816 29.0625 4.375 C34.64706857 4.75017476 38.91791093 5.70807748 44 8 C40.92883444 8.97384712 39.0025787 8.97459092 35.90234375 8.15234375 C29.96275936 6.70298311 23.9654376 5.98505434 17.90429688 5.23242188 C11.70899638 4.40607745 5.93225537 2.96412757 0 1 C0 0.67 0 0.34 0 0 Z " fill="#FACDCE" transform="translate(287,249)"/>
<path d="M0 0 C2.64 0 5.28 0 8 0 C8 0.66 8 1.32 8 2 C8.94746094 1.96519531 8.94746094 1.96519531 9.9140625 1.9296875 C20.08765059 1.72445662 30.31191633 2.77063878 40 6 C40 6.33 40 6.66 40 7 C32.97495309 7.25607704 26.35866984 6.27512958 19.4375 5.125 C17.79104492 4.86396484 17.79104492 4.86396484 16.11132812 4.59765625 C10.61459291 3.70307005 5.30853516 2.69081034 0 1 C0 0.67 0 0.34 0 0 Z " fill="#FBCFCF" transform="translate(135,250)"/>
<path d="M0 0 C-1.15692033 3.47076098 -1.90849388 3.90472747 -4.859375 5.8828125 C-6.03886719 6.67365234 -6.03886719 6.67365234 -7.2421875 7.48046875 C-8.06976563 8.02316406 -8.89734375 8.56585938 -9.75 9.125 C-10.56210937 9.67542969 -11.37421875 10.22585938 -12.2109375 10.79296875 C-13.00242187 11.31761719 -13.79390625 11.84226562 -14.609375 12.3828125 C-15.33092773 12.86121582 -16.05248047 13.33961914 -16.79589844 13.83251953 C-19.19988603 15.10587671 -21.32178694 15.59515384 -24 16 C-23 15 -22 14 -21 13 C-20.54625 12.46375 -20.0925 11.9275 -19.625 11.375 C-17.51940324 9.5933412 -15.69507616 9.36419948 -13 9 C-13 8.34 -13 7.68 -13 7 C-12.01 6.67 -11.02 6.34 -10 6 C-9.67 5.34 -9.34 4.68 -9 4 C-8.01 4 -7.02 4 -6 4 C-6 3.34 -6 2.68 -6 2 C-2.25 0 -2.25 0 0 0 Z " fill="#F12F2F" transform="translate(371,392)"/>
<path d="M0 0 C0.74958984 0.00451172 1.49917969 0.00902344 2.27148438 0.01367188 C4.11852383 0.02543646 5.96552213 0.04337135 7.8125 0.0625 C7.8125 0.7225 7.8125 1.3825 7.8125 2.0625 C8.73482422 2.01029297 8.73482422 2.01029297 9.67578125 1.95703125 C10.48402344 1.92996094 11.29226562 1.90289062 12.125 1.875 C13.32576172 1.82279297 13.32576172 1.82279297 14.55078125 1.76953125 C17.29101584 2.12448392 18.10421079 2.95616282 19.8125 5.0625 C12.25808259 4.16621319 12.25808259 4.16621319 9.546875 3.53515625 C5.9441114 2.91239283 2.39322907 2.91746391 -1.25 2.9375 C-1.95705078 2.93363281 -2.66410156 2.92976562 -3.39257812 2.92578125 C-6.79644531 2.93217349 -9.93474463 2.99796188 -13.1875 4.0625 C-9.82055044 -0.98792434 -5.55379517 -0.06305619 0 0 Z " fill="#FDDFDF" transform="translate(169.1875,192.9375)"/>
<path d="M0 0 C22.2610346 -0.49165475 22.2610346 -0.49165475 26.73046875 3.57421875 C27.35888672 4.27998047 27.35888672 4.27998047 28 5 C27.25878906 4.855625 26.51757812 4.71125 25.75390625 4.5625 C16.42648368 2.91849896 7.44398824 2.79641702 -2 3 C-1.34 2.67 -0.68 2.34 0 2 C0 1.34 0 0.68 0 0 Z " fill="#FBD6D6" transform="translate(316,193)"/>
<path d="M0 0 C0.66 0.33 1.32 0.66 2 1 C1.67 2.155 1.34 3.31 1 4.5 C-0.23009312 9.84748813 -0.1159492 15.05214017 0.07421875 20.50195312 C0.16892279 24.27190225 0.15438408 25.76842388 -2 29 C-4.3068371 19.25175292 -3.87926045 9.21324356 0 0 Z " fill="#FCDBDB" transform="translate(102,190)"/>
<path d="M0 0 C2.68763267 0.31139051 5.37510369 0.62408157 8.0625 0.9375 C9.19075195 1.06801758 9.19075195 1.06801758 10.34179688 1.20117188 C12.56207965 1.46068545 14.78126358 1.72759375 17 2 C18.03229736 2.12592529 18.03229736 2.12592529 19.08544922 2.25439453 C23.88059414 2.88059414 23.88059414 2.88059414 25 4 C26.34747084 4.23075082 27.70377565 4.41153063 29.0625 4.5625 C30.361875 4.706875 31.66125 4.85125 33 5 C33 5.33 33 5.66 33 6 C26.93474953 6.33083184 21.32954136 5.68096189 15.375 4.625 C14.65900635 4.49891357 13.9430127 4.37282715 13.20532227 4.24291992 C8.71036158 3.41289781 4.37589676 2.32080873 0 1 C0 0.67 0 0.34 0 0 Z " fill="#FACCCD" transform="translate(283,308)"/>
<path d="M0 0 C6.64004931 0.28135802 13.08408412 1.25207482 19.5625 2.6875 C20.61630859 2.89197754 20.61630859 2.89197754 21.69140625 3.10058594 C23.69140625 3.57421875 23.69140625 3.57421875 27 5 C28.46484375 8.14453125 28.46484375 8.14453125 29 11 C28.34 11.66 27.68 12.32 27 13 C26.67 11.02 26.34 9.04 26 7 C19.63761555 5.28829251 13.48192521 3.82319529 6.9140625 3.25 C4.40666387 2.92250304 2.26772287 2.09728526 0 1 C0 0.67 0 0.34 0 0 Z " fill="#E94F4F" transform="translate(312,255)"/>
<path d="M0 0 C22.59489033 3.16887304 22.59489033 3.16887304 33 5 C33 5.33 33 5.66 33 6 C31.04174127 6.02694851 29.08337774 6.04637218 27.125 6.0625 C25.48917969 6.07990234 25.48917969 6.07990234 23.8203125 6.09765625 C21 6 21 6 19 5 C17.48291125 4.81932591 15.96083716 4.67931302 14.4375 4.5625 C9.48636623 4.11567279 4.82915214 3.16834326 0 2 C0 1.34 0 0.68 0 0 Z " fill="#FDE7E8" transform="translate(161,208)"/>
<path d="M0 0 C6.96973021 -0.22875012 13.24536763 0.5957751 20.0625 2 C21.02349609 2.19078125 21.98449219 2.3815625 22.97460938 2.578125 C25.318046 3.04448055 27.65962765 3.51854466 30 4 C30 4.33 30 4.66 30 5 C19.79518508 5.41464259 9.72483802 4.16622633 0 1 C0 0.67 0 0.34 0 0 Z " fill="#FDE6E6" transform="translate(318,209)"/>
<path d="M0 0 C0.969375 0.86625 1.93875 1.7325 2.9375 2.625 C8.75690767 7.60801507 15.04227658 11.78874303 22 15 C18.86650268 16.04449911 18.01031744 15.93423645 15 15 C15 14.34 15 13.68 15 13 C13.88625 12.731875 12.7725 12.46375 11.625 12.1875 C8 11 8 11 6 8 C4.7315625 7.319375 4.7315625 7.319375 3.4375 6.625 C1 5 1 5 0.1875 2.3125 C0.0946875 1.1678125 0.0946875 1.1678125 0 0 Z " fill="#EA5858" transform="translate(107,233)"/>
<path d="M0 0 C0.66 0.33 1.32 0.66 2 1 C1.55269531 1.50789062 1.10539062 2.01578125 0.64453125 2.5390625 C0.03996094 3.22742188 -0.56460938 3.91578125 -1.1875 4.625 C-1.82558594 5.35074219 -2.46367188 6.07648438 -3.12109375 6.82421875 C-4.71033183 8.66456305 -6.23653963 10.53526082 -7.75 12.4375 C-10 15 -10 15 -13 16 C-10.91001677 9.10305533 -5.67770873 4.17478583 0 0 Z " fill="#FCE2E2" transform="translate(118,168)"/>
<path d="M0 0 C8.51372785 -0.31274919 16.6030674 0.62707087 25 2 C25 2.33 25 2.66 25 3 C22.14557247 3.05437005 19.29219924 3.09384974 16.4375 3.125 C15.63763672 3.14175781 14.83777344 3.15851563 14.01367188 3.17578125 C8.93499665 3.21723982 4.81188094 2.64056075 0 1 C0 0.67 0 0.34 0 0 Z " fill="#FBD9D9" transform="translate(168,154)"/>
<path d="M0 0 C4.27228163 1.3659676 8.45097579 2.75919991 12.5625 4.5625 C16.36217211 6.15145379 19.99033648 7.08551534 24 8 C21.4351511 9.71600605 20.35362267 10.06516761 17.265625 9.49609375 C10.93986886 7.27552391 5.47473752 4.89548631 0 1 C0 0.67 0 0.34 0 0 Z " fill="#FCE0E0" transform="translate(129,261)"/>
<path d="M0 0 C2.56280208 0.14154136 5.12515485 0.28808562 7.6875 0.4375 C8.40873047 0.47681641 9.12996094 0.51613281 9.87304688 0.55664062 C13.66707282 0.78185678 17.28651492 1.12839305 21 2 C21 2.33 21 2.66 21 3 C18.24973583 3.05404449 15.50053797 3.09369306 12.75 3.125 C11.97269531 3.14175781 11.19539063 3.15851563 10.39453125 3.17578125 C3.27568856 3.23662606 3.27568856 3.23662606 0 1 C0 0.67 0 0.34 0 0 Z " fill="#FBD6D7" transform="translate(327,154)"/>
<path d="M0 0 C1.98 0 3.96 0 6 0 C1.79575954 4.20424046 -6.08973886 4.80518744 -11.859375 5.19140625 C-13.90724153 5.18814532 -15.95477309 5.10399459 -18 5 C-18 4.67 -18 4.34 -18 4 C-16.865625 3.855625 -15.73125 3.71125 -14.5625 3.5625 C-11.19222799 3.38828522 -11.19222799 3.38828522 -10 2 C-8.31391034 1.92794489 -6.62499341 1.91613932 -4.9375 1.9375 C-4.01839844 1.94652344 -3.09929687 1.95554687 -2.15234375 1.96484375 C-1.44207031 1.97644531 -0.73179687 1.98804688 0 2 C0 1.34 0 0.68 0 0 Z " fill="#F9C7C8" transform="translate(195,309)"/>
<path d="M0 0 C0.66 0 1.32 0 2 0 C1.35125544 3.75916368 -0.36426815 6.3944638 -2.4375 9.5625 C-3.05496094 10.51253906 -3.67242187 11.46257812 -4.30859375 12.44140625 C-5.53516964 14.29685015 -6.76622399 16.14933599 -8 18 C-8.42820102 14.36029133 -7.97413512 12.95430537 -6.125 9.6875 C-5.073125 8.3571875 -5.073125 8.3571875 -4 7 C-3.34 7 -2.68 7 -2 7 C-1.855625 6.21625 -1.71125 5.4325 -1.5625 4.625 C-1 2 -1 2 0 0 Z " fill="#EA4B4B" transform="translate(100,274)"/>
<path d="M0 0 C0.99 0 1.98 0 3 0 C3.33 0.66 3.66 1.32 4 2 C6.01669827 3.13350534 6.01669827 3.13350534 8 4 C5.10765685 4.82638376 3.11257569 5 0 5 C-1.6446674 7.46326712 -1.6446674 7.46326712 -3 10 C-3.66 10 -4.32 10 -5 10 C-3.66786942 6.4134946 -2.23083941 3.12317517 0 0 Z " fill="#FBD5D5" transform="translate(270,253)"/>
<path d="M0 0 C-6.5255243 3.41106952 -10.73818209 4.1210303 -18 4 C-14.89576443 2.31945639 -11.83501066 1.26010501 -8.4375 0.3125 C-7.48746094 0.04050781 -6.53742188 -0.23148437 -5.55859375 -0.51171875 C-3 -1 -3 -1 0 0 Z " fill="#F02E2E" transform="translate(307,426)"/>
<path d="M0 0 C2 2 2 2 2 5 C3.32 5.66 4.64 6.32 6 7 C6 7.66 6 8.32 6 9 C6.66 9 7.32 9 8 9 C8 9.66 8 10.32 8 11 C8.99 11.33 9.98 11.66 11 12 C10.67 12.66 10.34 13.32 10 14 C8.8274869 13.04882866 7.66212985 12.08882991 6.5 11.125 C5.8503125 10.59132812 5.200625 10.05765625 4.53125 9.5078125 C4.0259375 9.01023438 3.520625 8.51265625 3 8 C3 7.34 3 6.68 3 6 C2.01 5.67 1.02 5.34 0 5 C-0.75 3 -0.75 3 -1 1 C-0.67 0.67 -0.34 0.34 0 0 Z " fill="#FBD8D8" transform="translate(105,227)"/>
<path d="M0 0 C0.99 0.33 1.98 0.66 3 1 C2.835 1.78375 2.67 2.5675 2.5 3.375 C1.9376293 5.88208039 1.9376293 5.88208039 2 8 C3.98 8.66 5.96 9.32 8 10 C4.37673261 11.2077558 3.35853631 10.54311128 0 9 C-1.125 2.25 -1.125 2.25 0 0 Z " fill="#FCD8D9" transform="translate(308,197)"/>
<path d="M0 0 C6.77594113 -0.32786812 12.70906089 0.2789192 19 3 C19.33 3.66 19.66 4.32 20 5 C13.24289769 3.9413873 6.60675438 2.77874156 0 1 C0 0.67 0 0.34 0 0 Z " fill="#E94B4C" transform="translate(343,155)"/>
<path d="M0 0 C14.78132118 0.77904328 14.78132118 0.77904328 21 3 C21 3.33 21 3.66 21 4 C13.65081658 4.43230491 7.09784913 2.81774185 0 1 C0 0.67 0 0.34 0 0 Z " fill="#FCDADA" transform="translate(154,253)"/>
<path d="M0 0 C0.33 0 0.66 0 1 0 C1.34615998 5.65394631 0.43425238 9.03006806 -2 14 C-2.33 14 -2.66 14 -3 14 C-2.58846263 9.02906176 -2.20399168 4.55491614 0 0 Z " fill="#EF2D2E" transform="translate(446,272)"/>
<path d="M0 0 C0.99 0.33 1.98 0.66 3 1 C2.43410156 1.55429688 1.86820312 2.10859375 1.28515625 2.6796875 C0.55167969 3.40414062 -0.18179687 4.12859375 -0.9375 4.875 C-1.66839844 5.59429687 -2.39929688 6.31359375 -3.15234375 7.0546875 C-5.05667999 8.87027192 -5.05667999 8.87027192 -6 11 C-6.66 11 -7.32 11 -8 11 C-8.33 11.66 -8.66 12.32 -9 13 C-9 12.01 -9 11.02 -9 10 C-8.34 10 -7.68 10 -7 10 C-6.9071875 9.1646875 -6.9071875 9.1646875 -6.8125 8.3125 C-5.66383862 5.043233 -3.51178856 3.32340442 -1 1 C-0.67 0.67 -0.34 0.34 0 0 Z " fill="#E95151" transform="translate(270,168)"/>
<path d="M0 0 C5.06998019 0.65419099 9.41990777 2.8546409 14 5 C14 5.33 14 5.66 14 6 C8.72250715 5.46148032 4.74354436 4.22656164 0 2 C0 1.34 0 0.68 0 0 Z " fill="#FACFCF" transform="translate(363,161)"/>
<path d="M0 0 C5.06998019 0.65419099 9.41990777 2.8546409 14 5 C14 5.33 14 5.66 14 6 C8.03790777 5.58882123 4.68411993 4.74729595 0 1 C0 0.67 0 0.34 0 0 Z " fill="#F9C9C9" transform="translate(208,161)"/>
<path d="M0 0 C4.70635989 0.44822475 9.35580527 0.98045206 14 1.875 C14.7425 2.01679688 15.485 2.15859375 16.25 2.3046875 C16.8275 2.53414062 17.405 2.76359375 18 3 C18.33 3.99 18.66 4.98 19 6 C18.29875 5.80664062 17.5975 5.61328125 16.875 5.4140625 C11.26507866 3.874383 5.64989553 2.38582343 0 1 C0 0.67 0 0.34 0 0 Z " fill="#E86161" transform="translate(188,155)"/>
<path d="M0 0 C1 2 1 2 0.0625 5.125 C-0.288125 6.07375 -0.63875 7.0225 -1 8 C-1.66 8 -2.32 8 -3 8 C-3 9.32 -3 10.64 -3 12 C-3.66 12 -4.32 12 -5 12 C-4.45119974 8.06693147 -3.74199701 4.58646443 -2 1 C-1.34 0.67 -0.68 0.34 0 0 Z " fill="#EF2E2E" transform="translate(61,138)"/>
<path d="M0 0 C5.67276511 -0.29341888 8.99067246 -0.00559652 14 3 C14 3.33 14 3.66 14 4 C9.03083364 3.48594831 4.70973649 2.76615118 0 1 C0 0.67 0 0.34 0 0 Z " fill="#F9CECE" transform="translate(199,216)"/>
<path d="M0 0 C3.465 1.98 3.465 1.98 7 4 C6.50168276 7.68754757 5.89932357 9.60490662 3 12 C3 10.68 3 9.36 3 8 C3.66 8 4.32 8 5 8 C3.63016497 4.83884224 3.0109362 4.0072908 0 2 C0 1.34 0 0.68 0 0 Z " fill="#FBD5D5" transform="translate(226,169)"/>
<path d="M0 0 C0.33 0.99 0.66 1.98 1 3 C1.66 3 2.32 3 3 3 C3.33 6.3 3.66 9.6 4 13 C3.67 12.01 3.34 11.02 3 10 C2.34 10 1.68 10 1 10 C0.67 6.7 0.34 3.4 0 0 Z " fill="#F8C1C1" transform="translate(255,215)"/>
<path d="M0 0 C3.53790403 3.69172595 3.59115883 7.09390595 4 12 C3.34 12 2.68 12 2 12 C0.70756464 7.8803623 -0.26252625 4.33168317 0 0 Z " fill="#FBD8D8" transform="translate(390,240)"/>
<path d="M0 0 C3.3 0 6.6 0 10 0 C10 0.66 10 1.32 10 2 C11.65 2 13.3 2 15 2 C15 2.66 15 3.32 15 4 C8.125 3.125 8.125 3.125 7 2 C4.67182036 1.63239269 2.3381615 1.29758419 0 1 C0 0.67 0 0.34 0 0 Z " fill="#EA6B6B" transform="translate(187,212)"/>
<path d="M0 0 C4.38889325 0.66498383 7.9811485 2.18757677 12 4 C12 4.33 12 4.66 12 5 C5.25 4.125 5.25 4.125 3 3 C3 2.34 3 1.68 3 1 C2.01 0.67 1.02 0.34 0 0 Z " fill="#F8C1C2" transform="translate(358,216)"/>
<path d="M0 0 C-0.33 0.66 -0.66 1.32 -1 2 C-7.04275534 3.36817102 -7.04275534 3.36817102 -10.4375 2.0625 C-10.953125 1.711875 -11.46875 1.36125 -12 1 C-7.93631321 0.22596442 -4.13574827 -0.0984702 0 0 Z " fill="#FBD4D4" transform="translate(161,154)"/>
<path d="M0 0 C1.4835001 0.42257276 2.96176424 0.86356322 4.4375 1.3125 C5.67306641 1.67794922 5.67306641 1.67794922 6.93359375 2.05078125 C7.61550781 2.36402344 8.29742187 2.67726563 9 3 C9.33 3.99 9.66 4.98 10 6 C6.00452264 5.38531118 3.22493358 3.34540624 0 1 C0 0.67 0 0.34 0 0 Z " fill="#EB5959" transform="translate(273,254)"/>
<path d="M0 0 C1.60332791 -0.08121924 3.20784026 -0.13929134 4.8125 -0.1875 C6.15248047 -0.23970703 6.15248047 -0.23970703 7.51953125 -0.29296875 C10.41647515 0.04918998 11.22555028 0.75393573 13 3 C8.62065881 2.48041715 4.31196609 1.94324258 0 1 C0 0.67 0 0.34 0 0 Z " fill="#F9C4C4" transform="translate(176,195)"/>
<path d="M0 0 C4.51617599 -0.07654536 8.59085217 -0.10228696 13 1 C10 3 10 3 7.51953125 2.7578125 C6.62621094 2.54898437 5.73289062 2.34015625 4.8125 2.125 C3.91144531 1.92132813 3.01039063 1.71765625 2.08203125 1.5078125 C1.39496094 1.34023438 0.70789063 1.17265625 0 1 C0 0.67 0 0.34 0 0 Z " fill="#FCDEDF" transform="translate(305,270)"/>
<path d="M0 0 C0.8125 1.6875 0.8125 1.6875 1 4 C-1.4375 6.75 -1.4375 6.75 -4 9 C-4 5.00095031 -2.27413033 3.19799578 0 0 Z " fill="#F9C6C6" transform="translate(258,273)"/>
<path d="M0 0 C0.66 0.33 1.32 0.66 2 1 C0.375 6.75 0.375 6.75 -3 9 C-2.01 6.03 -1.02 3.06 0 0 Z " fill="#FCDEDE" transform="translate(391,276)"/>
<path d="M0 0 C0.99 0.33 1.98 0.66 3 1 C2.67 1.66 2.34 2.32 2 3 C1.34 3 0.68 3 0 3 C0 3.66 0 4.32 0 5 C-0.66 5 -1.32 5 -2 5 C-2 5.66 -2 6.32 -2 7 C-2.66 6.67 -3.32 6.34 -4 6 C-2.68 4.02 -1.36 2.04 0 0 Z " fill="#FACDCD" transform="translate(115,253)"/>
<path d="M0 0 C0.66 0 1.32 0 2 0 C0.90931332 3.77545388 0.0916909 6.47043472 -3 9 C-2.5020163 5.26512223 -2.12508244 3.18762365 0 0 Z " fill="#FDDFE0" transform="translate(377,190)"/>
<path d="M0 0 C3.73487777 0.4979837 5.81237635 0.87491756 9 3 C6.36 3 3.72 3 1 3 C0.67 2.01 0.34 1.02 0 0 Z " fill="#F7BDBD" transform="translate(354,158)"/>
</svg>
